<mxfile host="app.diagrams.net" modified="2023-09-10T12:28:52.285Z" agent="Mozilla/5.0 (Windows NT 10.0; Win64; x64) AppleWebKit/537.36 (KHTML, like Gecko) Chrome/114.0.0.0 Safari/537.36 OPR/100.0.0.0" etag="Q22cUwrd0R0SNpALYPiR" version="21.7.4" type="device">
  <diagram id="C5RBs43oDa-KdzZeNtuy" name="Page-1">
    <mxGraphModel dx="2364" dy="2150" grid="1" gridSize="10" guides="1" tooltips="1" connect="1" arrows="1" fold="1" page="1" pageScale="1" pageWidth="827" pageHeight="1169" math="0" shadow="0">
      <root>
        <mxCell id="WIyWlLk6GJQsqaUBKTNV-0" />
        <mxCell id="WIyWlLk6GJQsqaUBKTNV-1" parent="WIyWlLk6GJQsqaUBKTNV-0" />
        <mxCell id="WIyWlLk6GJQsqaUBKTNV-3" value="Считывание и группировка данных из файлов в IEnumerable" style="rounded=1;whiteSpace=wrap;html=1;fontSize=12;glass=0;strokeWidth=1;shadow=0;" parent="WIyWlLk6GJQsqaUBKTNV-1" vertex="1">
          <mxGeometry x="-156" y="30" width="120" height="80" as="geometry" />
        </mxCell>
        <mxCell id="MWM0EeQzqQKpR9GFQB0R-3" value="Старт" style="strokeWidth=2;html=1;shape=mxgraph.flowchart.start_1;whiteSpace=wrap;" vertex="1" parent="WIyWlLk6GJQsqaUBKTNV-1">
          <mxGeometry x="-146" y="-60" width="100" height="60" as="geometry" />
        </mxCell>
        <mxCell id="MWM0EeQzqQKpR9GFQB0R-4" value="" style="endArrow=classic;html=1;rounded=0;exitX=0.5;exitY=1;exitDx=0;exitDy=0;exitPerimeter=0;entryX=0.5;entryY=0;entryDx=0;entryDy=0;" edge="1" parent="WIyWlLk6GJQsqaUBKTNV-1" source="MWM0EeQzqQKpR9GFQB0R-3" target="WIyWlLk6GJQsqaUBKTNV-3">
          <mxGeometry width="50" height="50" relative="1" as="geometry">
            <mxPoint x="-120" y="340" as="sourcePoint" />
            <mxPoint x="-30" y="100" as="targetPoint" />
          </mxGeometry>
        </mxCell>
        <mxCell id="MWM0EeQzqQKpR9GFQB0R-5" value="" style="endArrow=classic;html=1;rounded=0;exitX=1;exitY=0.5;exitDx=0;exitDy=0;entryX=0;entryY=0.5;entryDx=0;entryDy=0;" edge="1" parent="WIyWlLk6GJQsqaUBKTNV-1" source="WIyWlLk6GJQsqaUBKTNV-3" target="MWM0EeQzqQKpR9GFQB0R-7">
          <mxGeometry width="50" height="50" relative="1" as="geometry">
            <mxPoint x="-140" y="270" as="sourcePoint" />
            <mxPoint x="40" y="70" as="targetPoint" />
          </mxGeometry>
        </mxCell>
        <mxCell id="MWM0EeQzqQKpR9GFQB0R-7" value="Запрос ввода&lt;br&gt;(ожидается код отдела и номер типа документа)" style="shape=parallelogram;perimeter=parallelogramPerimeter;whiteSpace=wrap;html=1;fixedSize=1;" vertex="1" parent="WIyWlLk6GJQsqaUBKTNV-1">
          <mxGeometry x="20" y="40" width="160" height="60" as="geometry" />
        </mxCell>
        <mxCell id="MWM0EeQzqQKpR9GFQB0R-8" value="Ввод корректен?" style="rhombus;whiteSpace=wrap;html=1;shadow=0;fontFamily=Helvetica;fontSize=12;align=center;strokeWidth=1;spacing=6;spacingTop=-4;" vertex="1" parent="WIyWlLk6GJQsqaUBKTNV-1">
          <mxGeometry x="50" y="150" width="100" height="80" as="geometry" />
        </mxCell>
        <mxCell id="MWM0EeQzqQKpR9GFQB0R-9" value="" style="endArrow=classic;html=1;rounded=0;exitX=0.5;exitY=1;exitDx=0;exitDy=0;entryX=0.5;entryY=0;entryDx=0;entryDy=0;" edge="1" parent="WIyWlLk6GJQsqaUBKTNV-1" source="MWM0EeQzqQKpR9GFQB0R-7" target="MWM0EeQzqQKpR9GFQB0R-8">
          <mxGeometry width="50" height="50" relative="1" as="geometry">
            <mxPoint x="-100" y="270" as="sourcePoint" />
            <mxPoint x="-50" y="220" as="targetPoint" />
          </mxGeometry>
        </mxCell>
        <mxCell id="MWM0EeQzqQKpR9GFQB0R-12" value="" style="endArrow=classic;html=1;rounded=0;exitX=0;exitY=0.5;exitDx=0;exitDy=0;entryX=1;entryY=0.5;entryDx=0;entryDy=0;" edge="1" parent="WIyWlLk6GJQsqaUBKTNV-1" source="MWM0EeQzqQKpR9GFQB0R-8" target="MWM0EeQzqQKpR9GFQB0R-14">
          <mxGeometry width="50" height="50" relative="1" as="geometry">
            <mxPoint x="-100" y="270" as="sourcePoint" />
            <mxPoint x="-20" y="190" as="targetPoint" />
          </mxGeometry>
        </mxCell>
        <mxCell id="MWM0EeQzqQKpR9GFQB0R-13" value="Да" style="text;html=1;align=center;verticalAlign=middle;resizable=0;points=[];autosize=1;strokeColor=none;fillColor=none;" vertex="1" parent="WIyWlLk6GJQsqaUBKTNV-1">
          <mxGeometry x="-10" y="158" width="40" height="30" as="geometry" />
        </mxCell>
        <mxCell id="MWM0EeQzqQKpR9GFQB0R-14" value="Выборка кодов документов из IEnumerable файла docs.&lt;br&gt;Поля &quot;КодВида&quot; и &quot;Код отдела - отправителя&quot;" style="rounded=1;whiteSpace=wrap;html=1;fontSize=12;glass=0;strokeWidth=1;shadow=0;" vertex="1" parent="WIyWlLk6GJQsqaUBKTNV-1">
          <mxGeometry x="-160" y="137.5" width="124" height="105" as="geometry" />
        </mxCell>
        <mxCell id="MWM0EeQzqQKpR9GFQB0R-15" value="" style="endArrow=classic;html=1;rounded=0;exitX=0.5;exitY=1;exitDx=0;exitDy=0;entryX=0.5;entryY=0;entryDx=0;entryDy=0;" edge="1" parent="WIyWlLk6GJQsqaUBKTNV-1" source="MWM0EeQzqQKpR9GFQB0R-14" target="MWM0EeQzqQKpR9GFQB0R-16">
          <mxGeometry width="50" height="50" relative="1" as="geometry">
            <mxPoint x="200" y="410" as="sourcePoint" />
            <mxPoint x="250" y="360" as="targetPoint" />
          </mxGeometry>
        </mxCell>
        <mxCell id="MWM0EeQzqQKpR9GFQB0R-16" value="Вывод &quot;кода отдела&quot;, &quot;Кода документа&quot;, &quot;Названия документа&quot; и &quot;Даты регистрации&quot; из сформированного перечисления." style="shape=parallelogram;perimeter=parallelogramPerimeter;whiteSpace=wrap;html=1;fixedSize=1;" vertex="1" parent="WIyWlLk6GJQsqaUBKTNV-1">
          <mxGeometry x="-270" y="320" width="344" height="60" as="geometry" />
        </mxCell>
        <mxCell id="MWM0EeQzqQKpR9GFQB0R-17" value="Конец" style="strokeWidth=2;html=1;shape=mxgraph.flowchart.start_1;whiteSpace=wrap;" vertex="1" parent="WIyWlLk6GJQsqaUBKTNV-1">
          <mxGeometry x="-148" y="440" width="100" height="60" as="geometry" />
        </mxCell>
        <mxCell id="MWM0EeQzqQKpR9GFQB0R-18" value="" style="endArrow=classic;html=1;rounded=0;exitX=0.5;exitY=1;exitDx=0;exitDy=0;entryX=0.5;entryY=0;entryDx=0;entryDy=0;entryPerimeter=0;" edge="1" parent="WIyWlLk6GJQsqaUBKTNV-1" source="MWM0EeQzqQKpR9GFQB0R-16" target="MWM0EeQzqQKpR9GFQB0R-17">
          <mxGeometry width="50" height="50" relative="1" as="geometry">
            <mxPoint x="-120" y="850" as="sourcePoint" />
            <mxPoint x="-30" y="430" as="targetPoint" />
          </mxGeometry>
        </mxCell>
        <mxCell id="MWM0EeQzqQKpR9GFQB0R-19" value="Старт" style="strokeWidth=2;html=1;shape=mxgraph.flowchart.start_1;whiteSpace=wrap;" vertex="1" parent="WIyWlLk6GJQsqaUBKTNV-1">
          <mxGeometry x="385" y="-60" width="100" height="60" as="geometry" />
        </mxCell>
        <mxCell id="MWM0EeQzqQKpR9GFQB0R-20" value="" style="endArrow=classic;html=1;rounded=0;exitX=0.5;exitY=1;exitDx=0;exitDy=0;exitPerimeter=0;entryX=0.5;entryY=0;entryDx=0;entryDy=0;" edge="1" parent="WIyWlLk6GJQsqaUBKTNV-1" source="MWM0EeQzqQKpR9GFQB0R-19" target="MWM0EeQzqQKpR9GFQB0R-21">
          <mxGeometry width="50" height="50" relative="1" as="geometry">
            <mxPoint x="503" y="88" as="sourcePoint" />
            <mxPoint x="435" y="40" as="targetPoint" />
          </mxGeometry>
        </mxCell>
        <mxCell id="MWM0EeQzqQKpR9GFQB0R-21" value="//Пример считывания файла docs. Писать весь код тут - немного такое....&lt;br&gt;private IEnumerable&amp;lt;(int docId, string docName, int docNumber, int docTypeId, &lt;br&gt;int depIdSender,int depIdTarget, string date)&amp;gt; getDocData(){&lt;br&gt;&lt;span style=&quot;background-color: initial;&quot;&gt;foreach(var line in lines){&lt;/span&gt;&lt;br&gt;&lt;blockquote style=&quot;margin: 0 0 0 40px; border: none; padding: 0px;&quot;&gt;&lt;blockquote style=&quot;margin: 0 0 0 40px; border: none; padding: 0px;&quot;&gt;var str = line.Split(&#39; &#39;);&lt;/blockquote&gt;&lt;blockquote style=&quot;margin: 0 0 0 40px; border: none; padding: 0px;&quot;&gt;yield return (int.Parse(str[0]), str[1], int.Parse(str[2]), &lt;br&gt;int.Parse(str[3]),&amp;nbsp;int.Parse(str[4],&amp;nbsp;&lt;span style=&quot;background-color: initial;&quot;&gt;int.Parse(str[5]), str[6]&lt;/span&gt;&lt;span style=&quot;background-color: initial;&quot;&gt;)&lt;/span&gt;&lt;span style=&quot;background-color: initial;&quot;&gt;);&lt;/span&gt;&lt;/blockquote&gt;&lt;/blockquote&gt;&lt;blockquote style=&quot;margin: 0 0 0 40px; border: none; padding: 0px;&quot;&gt;}&lt;/blockquote&gt;}" style="rounded=1;whiteSpace=wrap;html=1;fontSize=12;glass=0;strokeWidth=1;shadow=0;align=left;" vertex="1" parent="WIyWlLk6GJQsqaUBKTNV-1">
          <mxGeometry x="215" y="40" width="440" height="160" as="geometry" />
        </mxCell>
        <mxCell id="MWM0EeQzqQKpR9GFQB0R-22" value="Запрос ввода&lt;br&gt;(ожидается код отдела и номер типа документа)" style="shape=parallelogram;perimeter=parallelogramPerimeter;whiteSpace=wrap;html=1;fixedSize=1;" vertex="1" parent="WIyWlLk6GJQsqaUBKTNV-1">
          <mxGeometry x="720" y="90" width="160" height="60" as="geometry" />
        </mxCell>
        <mxCell id="MWM0EeQzqQKpR9GFQB0R-23" value="" style="endArrow=classic;html=1;rounded=0;exitX=1;exitY=0.5;exitDx=0;exitDy=0;entryX=0;entryY=0.5;entryDx=0;entryDy=0;" edge="1" parent="WIyWlLk6GJQsqaUBKTNV-1" source="MWM0EeQzqQKpR9GFQB0R-21" target="MWM0EeQzqQKpR9GFQB0R-22">
          <mxGeometry width="50" height="50" relative="1" as="geometry">
            <mxPoint x="690" y="110" as="sourcePoint" />
            <mxPoint x="756" y="110" as="targetPoint" />
          </mxGeometry>
        </mxCell>
        <mxCell id="MWM0EeQzqQKpR9GFQB0R-24" value="" style="endArrow=classic;html=1;rounded=0;exitX=0.5;exitY=1;exitDx=0;exitDy=0;entryX=0.5;entryY=0;entryDx=0;entryDy=0;" edge="1" parent="WIyWlLk6GJQsqaUBKTNV-1" source="MWM0EeQzqQKpR9GFQB0R-22" target="MWM0EeQzqQKpR9GFQB0R-25">
          <mxGeometry width="50" height="50" relative="1" as="geometry">
            <mxPoint x="780" y="250" as="sourcePoint" />
            <mxPoint x="880" y="190" as="targetPoint" />
          </mxGeometry>
        </mxCell>
        <mxCell id="MWM0EeQzqQKpR9GFQB0R-25" value="&lt;font style=&quot;font-size: 10px;&quot;&gt;if (!deps.Any(x =&amp;gt; x.depId == depId) &amp;amp;&amp;amp; &lt;br&gt;!docTypes.Any(x =&amp;gt; x.docTypeId&amp;nbsp;==&amp;nbsp;docTypeId)){&lt;br&gt;Console.WriteLine(&quot;Таких данных нет в таблицах&quot;);&lt;br&gt;Environment.Exit(1);&lt;br&gt;}&lt;/font&gt;" style="rhombus;whiteSpace=wrap;html=1;shadow=0;fontFamily=Helvetica;fontSize=12;align=center;strokeWidth=1;spacing=6;spacingTop=-4;" vertex="1" parent="WIyWlLk6GJQsqaUBKTNV-1">
          <mxGeometry x="616.25" y="200" width="367.5" height="160" as="geometry" />
        </mxCell>
        <mxCell id="MWM0EeQzqQKpR9GFQB0R-26" value="" style="endArrow=classic;html=1;rounded=0;exitX=0;exitY=0.5;exitDx=0;exitDy=0;entryX=0.5;entryY=0;entryDx=0;entryDy=0;" edge="1" parent="WIyWlLk6GJQsqaUBKTNV-1" source="MWM0EeQzqQKpR9GFQB0R-25" target="MWM0EeQzqQKpR9GFQB0R-28">
          <mxGeometry width="50" height="50" relative="1" as="geometry">
            <mxPoint x="540" y="350" as="sourcePoint" />
            <mxPoint x="600" y="370" as="targetPoint" />
            <Array as="points">
              <mxPoint x="430" y="280" />
            </Array>
          </mxGeometry>
        </mxCell>
        <mxCell id="MWM0EeQzqQKpR9GFQB0R-27" value="Если данные есть в таблицах, то" style="text;html=1;align=center;verticalAlign=middle;resizable=0;points=[];autosize=1;strokeColor=none;fillColor=none;" vertex="1" parent="WIyWlLk6GJQsqaUBKTNV-1">
          <mxGeometry x="430" y="242.5" width="210" height="30" as="geometry" />
        </mxCell>
        <mxCell id="MWM0EeQzqQKpR9GFQB0R-28" value="var returnList = docs.Where(x =&amp;gt; x.depIdSender == depId &lt;br&gt;&lt;span style=&quot;white-space: pre;&quot;&gt;&#x9;&lt;/span&gt;&lt;span style=&quot;white-space: pre;&quot;&gt;&#x9;&lt;/span&gt;&lt;span style=&quot;white-space: pre;&quot;&gt;&#x9;&lt;/span&gt;&lt;span style=&quot;white-space: pre;&quot;&gt;&#x9;&lt;/span&gt;&lt;span style=&quot;white-space: pre;&quot;&gt;&#x9;&lt;/span&gt;&lt;span style=&quot;white-space: pre;&quot;&gt;&#x9;&lt;/span&gt;&amp;amp;&amp;amp; x.docTypeId == docTypeId).Select(x =&amp;gt; &lt;span style=&quot;white-space: pre;&quot;&gt;&#x9;&lt;/span&gt;&lt;span style=&quot;white-space: pre;&quot;&gt;&#x9;&lt;/span&gt;&lt;span style=&quot;white-space: pre;&quot;&gt;&#x9;&lt;/span&gt;&lt;span style=&quot;white-space: pre;&quot;&gt;&#x9;&lt;/span&gt;&lt;span style=&quot;white-space: pre;&quot;&gt;&#x9;&lt;/span&gt;&lt;span style=&quot;white-space: pre;&quot;&gt;&#x9;&lt;/span&gt;&lt;span style=&quot;white-space: pre;&quot;&gt;&#x9;&lt;/span&gt;(x.depIdSender, x.docId, x.docName, x.date));" style="rounded=1;whiteSpace=wrap;html=1;fontSize=12;glass=0;strokeWidth=1;shadow=0;align=left;" vertex="1" parent="WIyWlLk6GJQsqaUBKTNV-1">
          <mxGeometry x="210" y="360" width="440" height="70" as="geometry" />
        </mxCell>
        <mxCell id="MWM0EeQzqQKpR9GFQB0R-29" value="&lt;div style=&quot;&quot;&gt;&lt;span style=&quot;background-color: initial;&quot;&gt;foreach (var item in returnList){&lt;/span&gt;&lt;/div&gt;&lt;div style=&quot;&quot;&gt;Console.WriteLine(item); //условность&lt;/div&gt;&lt;div style=&quot;&quot;&gt;&lt;span style=&quot;background-color: initial;&quot;&gt;}&lt;/span&gt;&lt;/div&gt;" style="shape=parallelogram;perimeter=parallelogramPerimeter;whiteSpace=wrap;html=1;fixedSize=1;align=center;" vertex="1" parent="WIyWlLk6GJQsqaUBKTNV-1">
          <mxGeometry x="258" y="500" width="344" height="60" as="geometry" />
        </mxCell>
        <mxCell id="MWM0EeQzqQKpR9GFQB0R-30" value="" style="endArrow=classic;html=1;rounded=0;exitX=0.5;exitY=1;exitDx=0;exitDy=0;entryX=0.5;entryY=0;entryDx=0;entryDy=0;" edge="1" parent="WIyWlLk6GJQsqaUBKTNV-1" source="MWM0EeQzqQKpR9GFQB0R-28" target="MWM0EeQzqQKpR9GFQB0R-29">
          <mxGeometry width="50" height="50" relative="1" as="geometry">
            <mxPoint x="50" y="470" as="sourcePoint" />
            <mxPoint x="100" y="420" as="targetPoint" />
          </mxGeometry>
        </mxCell>
        <mxCell id="MWM0EeQzqQKpR9GFQB0R-31" value="" style="shape=link;html=1;rounded=0;" edge="1" parent="WIyWlLk6GJQsqaUBKTNV-1">
          <mxGeometry width="100" relative="1" as="geometry">
            <mxPoint x="200" y="590" as="sourcePoint" />
            <mxPoint x="200" y="-180" as="targetPoint" />
          </mxGeometry>
        </mxCell>
        <mxCell id="MWM0EeQzqQKpR9GFQB0R-32" value="&lt;font style=&quot;font-size: 16px;&quot;&gt;&lt;b&gt;Логическая интерпретация&lt;/b&gt;&lt;/font&gt;" style="text;html=1;align=center;verticalAlign=middle;resizable=0;points=[];autosize=1;strokeColor=none;fillColor=none;" vertex="1" parent="WIyWlLk6GJQsqaUBKTNV-1">
          <mxGeometry x="-216" y="-160" width="240" height="30" as="geometry" />
        </mxCell>
        <mxCell id="MWM0EeQzqQKpR9GFQB0R-33" value="&lt;font style=&quot;font-size: 16px;&quot;&gt;&lt;b&gt;Частичная кодовая интерпретация&lt;/b&gt;&lt;/font&gt;" style="text;html=1;align=center;verticalAlign=middle;resizable=0;points=[];autosize=1;strokeColor=none;fillColor=none;" vertex="1" parent="WIyWlLk6GJQsqaUBKTNV-1">
          <mxGeometry x="280" y="-170" width="300" height="30" as="geometry" />
        </mxCell>
      </root>
    </mxGraphModel>
  </diagram>
</mxfile>
